<svg width="450" height="450" viewBox="0 0 450 450" fill="none" xmlns="http://www.w3.org/2000/svg">
<rect width="450" height="450" fill="white"/>
<path d="M316.176 156.7C316.176 156.7 299.765 173.429 285.218 193.3L296.565 289.076C331.009 302.84 369.118 277.539 369.118 239.887C369.118 210.652 316.176 156.7 316.176 156.7Z" fill="#C6E7FF"/>
<path d="M285.218 193.299C260.824 155.394 225 118.881 225 118.881C225 118.881 189.177 155.393 164.783 193.299L153.441 289.075C167.618 313.905 194.353 330.646 225 330.646C270.151 330.646 307.353 294.08 307.353 248.293C307.353 232.811 297.806 212.87 285.218 193.299Z" fill="#60A5FA"/>
<path d="M186.765 239.887C186.765 262.199 172.965 281.281 153.441 289.075C118.993 302.842 80.8823 277.538 80.8823 239.887C80.8823 210.652 133.824 156.699 133.824 156.699C133.868 156.758 186.765 210.661 186.765 239.887Z" fill="#001A6E"/>
</svg>
