<svg width="450" height="450" viewBox="0 0 450 450" fill="none" xmlns="http://www.w3.org/2000/svg">
<rect width="450" height="450" fill="white"/>
<g clip-path="url(#clip0_1_21)">
<mask id="mask0_1_21" style="mask-type:alpha" maskUnits="userSpaceOnUse" x="165" y="74" width="121" height="302">
<path d="M277.835 328.64L260.681 306.105L253.687 294.516C251.247 290.473 250.001 285.823 250.092 281.102L251.167 225.188L250.092 169.274C250.001 164.553 251.247 159.902 253.687 155.86L260.681 144.27L277.835 121.736C286.157 110.805 284.113 95.2105 273.257 86.7925L267.81 82.5693C261.657 77.7978 253.633 76.1619 246.103 78.1434L225.432 83.5822L204.762 78.1434C197.232 76.1619 189.208 77.7978 183.054 82.5693L177.608 86.7925C166.751 95.2105 164.708 110.805 173.029 121.736L190.184 144.27L197.178 155.86C199.617 159.902 200.864 164.553 200.773 169.274L199.698 225.188L200.773 281.102C200.864 285.823 199.617 290.473 197.178 294.516L190.184 306.105L173.029 328.64C164.708 339.57 166.751 355.165 177.608 363.583L183.054 367.806C189.208 372.578 197.232 374.214 204.762 372.232L225.432 366.793L246.103 372.232C253.633 374.214 261.657 372.578 267.81 367.806L273.257 363.583C284.113 355.165 286.157 339.57 277.835 328.64Z" fill="#D9D9D9"/>
<path d="M251.179 224.575L250.092 281.102C250.001 285.823 251.247 290.473 253.687 294.516L260.681 306.105L277.835 328.64C286.157 339.57 284.113 355.165 273.257 363.583L267.81 367.806C261.657 372.578 253.633 374.214 246.103 372.232L225.432 366.793L204.762 372.232C197.232 374.214 189.208 372.578 183.054 367.806L177.608 363.583C166.751 355.165 164.708 339.57 173.029 328.64L190.184 306.105L197.178 294.516C199.617 290.473 200.864 285.823 200.773 281.102L199.686 224.575M251.179 225.801L250.092 169.274C250.001 164.553 251.247 159.902 253.687 155.86L260.681 144.27L277.835 121.736C286.157 110.805 284.113 95.2105 273.257 86.7925L267.81 82.5693C261.657 77.7978 253.633 76.1619 246.103 78.1434L225.432 83.5822L204.762 78.1434C197.232 76.1619 189.208 77.7978 183.054 82.5693L177.608 86.7925C166.751 95.2105 164.708 110.805 173.029 121.736L190.184 144.27L197.178 155.86C199.617 159.902 200.864 164.553 200.773 169.274L199.686 225.801" stroke="white" stroke-width="5.00626"/>
</mask>
<g mask="url(#mask0_1_21)">
<rect width="300.375" height="100.125" transform="translate(70.8931 275.25)" fill="#001A6E"/>
<rect width="300.375" height="100.125" transform="translate(70.8931 175.125)" fill="#60A5FA"/>
<rect width="300.375" height="100.125" transform="translate(70.8931 75)" fill="#C6E7FF"/>
</g>
</g>
<defs>
<clipPath id="clip0_1_21">
<rect x="158" y="75" width="134.862" height="300.375" rx="10.0125" fill="white"/>
</clipPath>
</defs>
</svg>
