<svg width="450" height="450" viewBox="0 0 450 450" fill="none" xmlns="http://www.w3.org/2000/svg">
<rect width="450" height="450" fill="white"/>
<path d="M205 325V175C205 172.348 203.946 169.804 202.071 167.929C200.196 166.054 197.652 165 195 165H145C139.696 165 134.609 167.107 130.858 170.858C127.107 174.609 125 179.696 125 185V305C125 310.304 127.107 315.391 130.858 319.142C134.609 322.893 139.696 325 145 325H265C270.304 325 275.391 322.893 279.142 319.142C282.893 315.391 285 310.304 285 305V255C285 252.348 283.946 249.804 282.071 247.929C280.196 246.054 277.652 245 275 245H125" stroke="#001A6E" stroke-width="10" stroke-linecap="square" stroke-linejoin="round"/>
<path d="M315 125H255C249.477 125 245 129.477 245 135V195C245 200.523 249.477 205 255 205H315C320.523 205 325 200.523 325 195V135C325 129.477 320.523 125 315 125Z" stroke="#60A5FA" stroke-width="10" stroke-linecap="square" stroke-linejoin="round"/>
</svg>
